<?xml version="1.0" standalone="no"?>
<!DOCTYPE svg PUBLIC "-//W3C//DTD SVG 20010904//EN"
 "http://www.w3.org/TR/2001/REC-SVG-20010904/DTD/svg10.dtd">
<svg version="1.0" xmlns="http://www.w3.org/2000/svg"
 width="160.000000pt" height="160.000000pt" viewBox="0 0 160.000000 160.000000"
 preserveAspectRatio="xMidYMid meet">
<metadata>
Created by potrace 1.14, written by Peter Selinger 2001-2017
</metadata>
<g transform="translate(0.000000,160.000000) scale(0.100000,-0.100000)"
fill="#000000" stroke="none">
<path d="M515 1343 c-173 -33 -284 -187 -253 -351 7 -41 35 -111 48 -122 5 -4
53 -63 97 -120 7 -8 38 -47 70 -86 32 -39 72 -88 88 -108 17 -21 55 -69 85
-106 30 -37 66 -82 80 -100 70 -89 72 -89 150 12 30 39 62 79 70 88 26 31 42
51 165 205 66 83 122 152 125 155 3 3 19 23 36 45 149 193 33 463 -211 490
-73 7 -184 -36 -235 -92 l-31 -33 -29 33 c-49 57 -184 104 -255 90z"/>
</g>
</svg>
